<svg preserveAspectRatio="none" overflow="visible" style="display: block;" width="36" height="36" viewBox="0 0 36 36" fill="none" xmlns="http://www.w3.org/2000/svg">
<g id="Group 73">
<circle id="Ellipse 1" cx="18" cy="18" r="18" fill="white"/>
<g id="Facebook" transform="translate(3, 3)">
<path id="Combined-Shape" d="M15 0C23.2843 0 30 6.71573 30 15C29.9999 23.2842 23.2842 30 15 30C6.71581 30 0.00013195 23.2842 0 15C0 6.71573 6.71573 0 15 0ZM16.8457 7.5C14.1395 7.5 13.1866 8.86406 13.1865 11.1582V12.8467H11.5V15.6592H13.1865V23.8193H16.5635V15.6592H18.8164L19.1143 12.8467H16.5635L16.5674 11.4385C16.5674 10.7053 16.6372 10.3125 17.6904 10.3125H19.0986V7.5H16.8457Z" fill="#1877F2"/>
</g>
</g>
</svg>
